<svg viewBox="0 0 512 512" xmlns="http://www.w3.org/2000/svg"><path d="m32 64c0-35.3 28.7-64 64-64h160c35.3 0 64 28.7 64 64v192h8c48.6 0 88 39.4 88 88v32c0 13.3 10.7 24 24 24s24-10.7 24-24v-154c-27.6-7.1-48-32.2-48-62v-64l-32-32c-8.8-8.8-8.8-23.2 0-32s23.2-8.8 32 0l77.3 77.3c12 12 18.7 28.3 18.7 45.3v13.4 24 32 152c0 39.8-32.2 72-72 72s-72-32.2-72-72v-32c0-22.1-17.9-40-40-40h-8v144c17.7 0 32 14.3 32 32s-14.3 32-32 32h-288c-17.7 0-32-14.3-32-32s14.3-32 32-32zm64 16v96c0 8.8 7.2 16 16 16h128c8.8 0 16-7.2 16-16v-96c0-8.8-7.2-16-16-16h-128c-8.8 0-16 7.2-16 16z"/></svg>